<svg width="279" height="140" viewBox="0 0 279 140" fill="none" xmlns="http://www.w3.org/2000/svg">
<g clip-path="url(#clip0_162_148)">
<path d="M232.81 153.689C254.725 153.689 272.49 135.86 272.49 113.867C272.49 91.8735 254.725 74.0445 232.81 74.0445C210.895 74.0445 193.13 91.8735 193.13 113.867C193.13 135.86 210.895 153.689 232.81 153.689Z" fill="#BBDCE5" fill-opacity="0.25"/>
<path d="M183.83 41.6889C193.418 41.6889 201.19 33.8887 201.19 24.2667C201.19 14.6446 193.418 6.84445 183.83 6.84445C174.242 6.84445 166.47 14.6446 166.47 24.2667C166.47 33.8887 174.242 41.6889 183.83 41.6889Z" fill="#BBDCE5" fill-opacity="0.25"/>
<path d="M36.89 51.0222C48.0185 51.0222 57.04 41.9684 57.04 30.8C57.04 19.6316 48.0185 10.5778 36.89 10.5778C25.7615 10.5778 16.74 19.6316 16.74 30.8C16.74 41.9684 25.7615 51.0222 36.89 51.0222Z" fill="#BBDCE5" fill-opacity="0.25"/>
</g>
<defs>
<clipPath id="clip0_162_148">
<rect width="279" height="140" fill="white"/>
</clipPath>
</defs>
</svg>
