<svg width="332" height="332" viewBox="0 0 332 332" fill="none" xmlns="http://www.w3.org/2000/svg">
<path d="M332 253.914H0V254.08H332V253.914Z" fill="#EBEBEB"/>
<path d="M298.734 264.597H284.338V264.763H298.734V264.597Z" fill="#EBEBEB"/>
<path d="M228.861 261.158H206.212V261.324H228.861V261.158Z" fill="#EBEBEB"/>
<path d="M292.904 258.435H263.336V258.601H292.904V258.435Z" fill="#EBEBEB"/>
<path d="M114.885 261.782H107.488V261.948H114.885V261.782Z" fill="#EBEBEB"/>
<path d="M101.572 261.782H76.0811V261.948H101.572V261.782Z" fill="#EBEBEB"/>
<path d="M62.4227 258.98H44.0298V259.146H62.4227V258.98Z" fill="#EBEBEB"/>
<path d="M157.368 224.299H29.1563C28.1519 224.297 27.1892 223.897 26.4796 223.186C25.77 222.476 25.3715 221.512 25.3715 220.508V40.2782C25.3802 39.2796 25.7826 38.3247 26.4913 37.6211C27.1999 36.9174 28.1576 36.5217 29.1563 36.52H157.368C158.374 36.52 159.338 36.9195 160.049 37.6305C160.76 38.3415 161.159 39.3059 161.159 40.3114V220.508C161.159 221.513 160.76 222.478 160.049 223.189C159.338 223.9 158.374 224.299 157.368 224.299ZM29.1563 36.6528C28.1959 36.6546 27.2754 37.0373 26.597 37.717C25.9185 38.3967 25.5375 39.3179 25.5375 40.2782V220.508C25.5375 221.468 25.9185 222.389 26.597 223.069C27.2754 223.749 28.1959 224.131 29.1563 224.133H157.368C158.329 224.131 159.25 223.749 159.93 223.069C160.609 222.39 160.992 221.469 160.993 220.508V40.2782C160.992 39.3172 160.609 38.3961 159.93 37.7166C159.25 37.0371 158.329 36.6546 157.368 36.6528H29.1563Z" fill="#EBEBEB"/>
<path d="M300.998 224.299H172.779C171.774 224.297 170.811 223.897 170.1 223.187C169.39 222.476 168.99 221.513 168.988 220.508V40.2782C168.998 39.279 169.402 38.3241 170.112 37.6206C170.822 36.9171 171.78 36.5217 172.779 36.52H300.998C301.995 36.5235 302.951 36.9199 303.659 37.6234C304.366 38.3269 304.767 39.2807 304.776 40.2782V220.508C304.776 221.511 304.378 222.473 303.67 223.184C302.962 223.895 302.001 224.296 300.998 224.299ZM172.779 36.6528C171.818 36.6546 170.897 37.0371 170.218 37.7166C169.538 38.3961 169.156 39.3172 169.154 40.2782V220.508C169.156 221.469 169.538 222.39 170.218 223.069C170.897 223.749 171.818 224.131 172.779 224.133H300.998C301.959 224.131 302.88 223.749 303.559 223.069C304.239 222.39 304.622 221.469 304.623 220.508V40.2782C304.622 39.3172 304.239 38.3961 303.559 37.7166C302.88 37.0371 301.959 36.6546 300.998 36.6528H172.779Z" fill="#EBEBEB"/>
<path d="M76.36 115.954C80.0423 115.954 83.5738 114.492 86.1776 111.888C88.7814 109.284 90.2442 105.752 90.2442 102.07C90.2442 98.3877 88.7814 94.8562 86.1776 92.2524C83.5738 89.6486 80.0423 88.1858 76.36 88.1858H74.6535V115.954H76.36Z" fill="#E0E0E0"/>
<path d="M74.6402 115.954C82.3083 115.954 88.5245 109.738 88.5245 102.07C88.5245 94.402 82.3083 88.1858 74.6402 88.1858C66.9722 88.1858 60.756 94.402 60.756 102.07C60.756 109.738 66.9722 115.954 74.6402 115.954Z" fill="#F5F5F5"/>
<path d="M74.0028 103.81C69.0719 103.81 64.3429 101.851 60.8562 98.3643C57.3696 94.8776 55.4108 90.1487 55.4108 85.2178V74.1223C55.4108 73.6592 55.5948 73.215 55.9223 72.8875C56.2498 72.56 56.6939 72.376 57.1571 72.376C57.6202 72.376 58.0644 72.56 58.3919 72.8875C58.7194 73.215 58.9034 73.6592 58.9034 74.1223V85.2244C58.9069 89.2268 60.498 93.0643 63.3274 95.895C66.1569 98.7258 69.9938 100.318 73.9961 100.324C74.2341 100.309 74.4725 100.343 74.6967 100.424C74.921 100.505 75.1262 100.631 75.2999 100.794C75.4736 100.958 75.612 101.155 75.7067 101.374C75.8013 101.593 75.8501 101.828 75.8501 102.067C75.8501 102.305 75.8013 102.541 75.7067 102.76C75.612 102.979 75.4736 103.176 75.2999 103.339C75.1262 103.502 74.921 103.628 74.6967 103.709C74.4725 103.79 74.2341 103.824 73.9961 103.81H74.0028Z" fill="#E0E0E0"/>
<path d="M41.7191 83.8964H72.6084C73.1024 83.8965 73.5898 83.7832 74.0331 83.5651C74.4764 83.3471 74.8637 83.0303 75.1652 82.6389C75.4668 82.2476 75.6744 81.7923 75.7722 81.3081C75.8699 80.8239 75.8553 80.3236 75.7292 79.846L73.04 69.72C72.8585 69.0321 72.4547 68.4235 71.8915 67.9888C71.3284 67.5541 70.6373 67.3177 69.9258 67.3163H44.4017C43.6894 67.3173 42.9974 67.5535 42.433 67.9881C41.8687 68.4228 41.4637 69.0316 41.2809 69.72L38.6249 79.8327C38.4956 80.3092 38.4776 80.8089 38.5723 81.2934C38.6669 81.7779 38.8717 82.2342 39.1707 82.627C39.4698 83.0197 39.8552 83.3385 40.297 83.5586C40.7389 83.7787 41.2255 83.8943 41.7191 83.8964Z" fill="#F5F5F5"/>
<path d="M272.426 115.954C276.108 115.954 279.64 114.492 282.244 111.888C284.847 109.284 286.31 105.752 286.31 102.07C286.31 98.3877 284.847 94.8562 282.244 92.2524C279.64 89.6486 276.108 88.1858 272.426 88.1858H270.719V115.954H272.426Z" fill="#E0E0E0"/>
<path d="M270.719 115.954C278.387 115.954 284.604 109.738 284.604 102.07C284.604 94.402 278.387 88.1858 270.719 88.1858C263.051 88.1858 256.835 94.402 256.835 102.07C256.835 109.738 263.051 115.954 270.719 115.954Z" fill="#F5F5F5"/>
<path d="M270.082 103.81C265.151 103.81 260.422 101.851 256.935 98.3643C253.449 94.8776 251.49 90.1487 251.49 85.2178V74.1223C251.49 73.6592 251.674 73.215 252.001 72.8875C252.329 72.56 252.773 72.376 253.236 72.376C253.699 72.376 254.144 72.56 254.471 72.8875C254.799 73.215 254.983 73.6592 254.983 74.1223V85.2244C254.986 89.2268 256.577 93.0643 259.407 95.895C262.236 98.7258 266.073 100.318 270.075 100.324C270.313 100.309 270.552 100.343 270.776 100.424C271 100.505 271.205 100.631 271.379 100.794C271.553 100.958 271.691 101.155 271.786 101.374C271.88 101.593 271.929 101.828 271.929 102.067C271.929 102.305 271.88 102.541 271.786 102.76C271.691 102.979 271.553 103.176 271.379 103.339C271.205 103.502 271 103.628 270.776 103.709C270.552 103.79 270.313 103.824 270.075 103.81H270.082Z" fill="#E0E0E0"/>
<path d="M237.798 83.8964H268.688C269.182 83.8965 269.669 83.7832 270.112 83.5652C270.556 83.3471 270.943 83.0303 271.244 82.639C271.546 82.2476 271.754 81.7923 271.851 81.3081C271.949 80.8239 271.934 80.3237 271.808 79.846L269.152 69.7333C268.971 69.0454 268.567 68.4368 268.004 68.002C267.441 67.5673 266.75 67.3309 266.038 67.3296H240.481C239.769 67.3306 239.077 67.5668 238.512 68.0014C237.948 68.436 237.543 69.0448 237.36 69.7333L234.704 79.846C234.577 80.3216 234.561 80.8199 234.657 81.3027C234.753 81.7855 234.958 82.2399 235.257 82.631C235.555 83.0222 235.94 83.3396 236.38 83.559C236.821 83.7783 237.306 83.8938 237.798 83.8964Z" fill="#F5F5F5"/>
<path d="M88.9627 209.731H99.0621V170.602H88.9627V209.731Z" fill="#E6E6E6"/>
<path d="M61.586 209.724H95.0981L100.158 163.928H66.6457L61.586 209.724Z" fill="#F0F0F0"/>
<path d="M57.9539 209.724H92.5749L97.6346 163.928H63.0202L57.9539 209.724Z" fill="#F5F5F5"/>
<path d="M90.0716 206.119L94.3345 167.54H65.5169L61.254 206.119H90.0716Z" fill="white"/>
<path d="M84.1221 196.763L84.328 195.216C85.397 185.535 79.3546 176.91 71.5061 176.91L71.3269 178.483C70.2578 188.158 76.3002 196.783 84.1553 196.783L84.1221 196.763Z" fill="#F5F5F5"/>
<path d="M39.2358 253.914H69.0095V209.724H39.2358L39.2358 253.914Z" fill="#E6E6E6"/>
<path d="M42.2238 253.914H39.2291V245.395H45.3645L42.2238 253.914Z" fill="#F0F0F0"/>
<path d="M122.681 253.914H152.454V209.724H122.681V253.914Z" fill="#E6E6E6"/>
<path d="M39.2291 248.688H125.29V209.731H39.2291V248.688Z" fill="#F0F0F0"/>
<path d="M122.296 253.914H125.29V245.395H119.155L122.296 253.914Z" fill="#F0F0F0"/>
<path d="M41.5532 227.885H122.966V212.161H41.5532V227.885Z" fill="#E6E6E6"/>
<path d="M76.8314 222.44H87.6878C90.022 222.441 92.3318 221.966 94.476 221.043C96.6201 220.121 98.5535 218.77 100.158 217.075H64.3615C65.9665 218.769 67.9 220.119 70.044 221.042C72.188 221.964 74.4974 222.44 76.8314 222.44Z" fill="#F0F0F0"/>
<path d="M41.5532 246.145H122.966V230.421H41.5532V246.145Z" fill="#E6E6E6"/>
<path d="M76.8314 240.673H87.6878C90.022 240.674 92.3318 240.199 94.476 239.277C96.6201 238.354 98.5535 237.004 100.158 235.308H64.3615C65.9665 237.003 67.9 238.353 70.044 239.275C72.188 240.197 74.4974 240.673 76.8314 240.673Z" fill="#F0F0F0"/>
<path d="M119.839 207.925H120.609C120.609 206.338 120.609 202.321 120.689 193.111C120.828 176.411 121.094 175.396 121.094 175.396L119.261 183.105C118.099 191.637 119.6 200.216 119.839 207.925Z" fill="#E6E6E6"/>
<path d="M118.318 181.936C115.662 178.795 110.051 177.879 104.288 177.095C102.024 176.79 110.231 181.963 114.248 185.634C117.369 188.49 119.361 189.28 120.224 192.122C120.662 188.576 120.589 184.665 118.318 181.936Z" fill="#E6E6E6"/>
<path d="M121.817 187.567C124.473 184.426 130.084 183.516 135.848 182.733C138.112 182.427 129.872 187.6 125.888 191.272C122.767 194.127 120.775 194.917 119.912 197.759C119.474 194.213 119.52 190.276 121.817 187.567Z" fill="#E6E6E6"/>
<path d="M120.689 174.632C122.681 170.874 127.634 167.328 133.218 166C135.41 165.475 128.139 172.932 125.376 177.746C123.232 181.478 120.39 185.874 119.945 189.034C119.281 182.806 118.71 178.41 120.689 174.632Z" fill="#E6E6E6"/>
<path d="M120.45 209.724C118.099 209.724 116.154 208.549 116.014 207.035L115.622 204.459H125.284L124.885 207.035C124.752 208.549 122.84 209.724 120.45 209.724Z" fill="#F0F0F0"/>
<path d="M125.908 205.448H114.998L114.686 202.573H126.22L125.908 205.448Z" fill="#F0F0F0"/>
<path d="M112.575 150.542H218.954V53.5118L112.575 53.5118L112.575 150.542Z" fill="#E6E6E6"/>
<path d="M110.184 150.542H217.911V53.5118L110.184 53.5118L110.184 150.542Z" fill="#F5F5F5"/>
<path d="M213.609 146.2V57.861L114.474 57.861V146.2H213.609Z" fill="#FAFAFA"/>
<path d="M201.451 146.2L162.434 57.861H149.181L188.198 146.2H201.451Z" fill="white"/>
<path d="M184.439 146.2L145.423 57.861H136.299L175.316 146.2H184.439Z" fill="white"/>
<path d="M151.286 146.193V57.8543H146.16V146.193H151.286Z" fill="#E6E6E6"/>
<path d="M185.362 146.193V57.8543H180.236V146.193H185.362Z" fill="#E6E6E6"/>
<path d="M150.363 148.955V54.6273H143.882V148.955H150.363Z" fill="#F5F5F5"/>
<path d="M184.439 148.955V54.6273H177.959V148.955H184.439Z" fill="#F5F5F5"/>
<path d="M114.938 146.2V57.861H114.48V146.2H114.938Z" fill="#E6E6E6"/>
<path d="M108.378 47.9209H223.622C223.769 47.9226 223.91 47.9819 224.014 48.0861C224.119 48.1904 224.178 48.3312 224.18 48.4786C224.178 48.6254 224.118 48.7656 224.014 48.8687C223.91 48.9719 223.769 49.0298 223.622 49.0298H108.378C108.231 49.0298 108.09 48.9719 107.986 48.8687C107.882 48.7656 107.822 48.6254 107.82 48.4786C107.822 48.3312 107.881 48.1904 107.986 48.0861C108.09 47.9819 108.231 47.9226 108.378 47.9209Z" fill="#E6E6E6"/>
<path d="M218.954 51.5795C219.152 51.5778 219.341 51.4979 219.48 51.3574C219.62 51.2169 219.698 51.0271 219.698 50.8292V49.2223C219.699 49.1241 219.68 49.0267 219.643 48.9357C219.606 48.8447 219.551 48.7619 219.482 48.6922C219.413 48.6224 219.331 48.567 219.24 48.5292C219.149 48.4915 219.052 48.472 218.954 48.472C218.756 48.472 218.566 48.5501 218.426 48.6894C218.285 48.8287 218.205 49.0178 218.204 49.2157V50.8226C218.204 51.0222 218.283 51.2137 218.423 51.3555C218.564 51.4972 218.754 51.5778 218.954 51.5795Z" fill="#E6E6E6"/>
<path d="M116.731 51.5795C116.93 51.5778 117.12 51.4982 117.26 51.3578C117.4 51.2175 117.48 51.0277 117.482 50.8292V49.2223C117.482 49.0233 117.402 48.8325 117.262 48.6918C117.121 48.5511 116.93 48.472 116.731 48.472C116.534 48.472 116.345 48.5504 116.205 48.6898C116.066 48.8293 115.988 49.0184 115.988 49.2157V50.8226C115.987 50.9211 116.005 51.0188 116.042 51.1102C116.079 51.2016 116.134 51.2848 116.203 51.3551C116.272 51.4254 116.354 51.4814 116.445 51.5199C116.535 51.5584 116.633 51.5787 116.731 51.5795Z" fill="#E6E6E6"/>
<path opacity="0.6" d="M108.551 124.46L216.205 124.46V48.472L108.551 48.472L108.551 124.46Z" fill="#E0E0E0"/>
<path d="M225.953 172.62H207.387C205.414 172.62 203.815 174.219 203.815 176.192V184.785C203.815 186.757 205.414 188.357 207.387 188.357H225.953C227.926 188.357 229.525 186.757 229.525 184.785V176.192C229.525 174.219 227.926 172.62 225.953 172.62Z" fill="#FAFAFA"/>
<path d="M228.323 169.712H205.017C204.353 169.712 203.815 170.25 203.815 170.914V171.883C203.815 172.547 204.353 173.085 205.017 173.085H228.323C228.987 173.085 229.525 172.547 229.525 171.883V170.914C229.525 170.25 228.987 169.712 228.323 169.712Z" fill="#E6E6E6"/>
<path d="M204.193 205.84C204.193 205.84 204.532 216.909 217.427 216.909C230.322 216.909 230.66 205.84 230.66 205.84H204.193Z" fill="#F0F0F0"/>
<path d="M233.595 205.84C233.595 205.84 233.934 216.909 246.829 216.909C259.724 216.909 260.062 205.84 260.062 205.84H233.595Z" fill="#F0F0F0"/>
<path d="M253.675 165.495H228.177C225.463 165.495 223.263 167.695 223.263 170.409V183.45C223.263 186.164 225.463 188.364 228.177 188.364H253.675C256.388 188.364 258.588 186.164 258.588 183.45V170.409C258.588 167.695 256.388 165.495 253.675 165.495Z" fill="#F0F0F0"/>
<path d="M256.941 161.498H224.91C224.001 161.498 223.263 162.235 223.263 163.145V164.486C223.263 165.396 224.001 166.133 224.91 166.133H256.941C257.851 166.133 258.588 165.396 258.588 164.486V163.145C258.588 162.235 257.851 161.498 256.941 161.498Z" fill="#F5F5F5"/>
<path d="M194.479 253.914H197.826V199.041H194.479V253.914Z" fill="#E6E6E6"/>
<path d="M291.111 188.357H272.99V199.034H291.111V188.357Z" fill="#E6E6E6"/>
<path d="M182.892 199.041H272.984V188.364H182.892V199.041Z" fill="#F5F5F5"/>
<path d="M291.111 216.876H272.99V227.553H291.111V216.876Z" fill="#E6E6E6"/>
<path d="M182.892 227.553H272.984V216.876H182.892V227.553Z" fill="#F5F5F5"/>
<path d="M284.57 253.914H287.917V199.041H284.57V253.914Z" fill="#E6E6E6"/>
<path d="M269.644 253.914H272.99V199.041H269.644V253.914Z" fill="#F5F5F5"/>
<path d="M182.892 253.914H186.239V199.041H182.892V253.914Z" fill="#F5F5F5"/>
<path d="M166 283.9C237.103 283.9 294.743 280.535 294.743 276.383C294.743 272.232 237.103 268.867 166 268.867C94.8972 268.867 37.257 272.232 37.257 276.383C37.257 280.535 94.8972 283.9 166 283.9Z" fill="#F5F5F5"/>
<path d="M172.912 242.692H88.2058C86.8436 242.673 85.5392 242.139 84.554 241.198C83.5688 240.257 82.9757 238.979 82.8938 237.619L75.2976 90.5098C75.2555 89.8555 75.349 89.1995 75.5723 88.583C75.7955 87.9665 76.1438 87.4027 76.5951 86.927C77.0464 86.4514 77.5912 86.0741 78.1951 85.8188C78.7991 85.5635 79.4493 85.4358 80.105 85.4435H164.811C166.173 85.4612 167.477 85.9933 168.463 86.9331C169.448 87.8729 170.041 89.1507 170.123 90.5098L177.706 237.619C177.748 238.273 177.655 238.928 177.433 239.544C177.21 240.16 176.863 240.723 176.414 241.199C175.964 241.675 175.421 242.053 174.818 242.31C174.216 242.567 173.567 242.697 172.912 242.692Z" fill="#0D92F4"/>
<path opacity="0.8" d="M172.912 242.692H88.2058C86.8436 242.673 85.5392 242.139 84.554 241.198C83.5688 240.257 82.9757 238.979 82.8938 237.619L75.2976 90.5098C75.2555 89.8555 75.349 89.1995 75.5723 88.583C75.7955 87.9665 76.1438 87.4027 76.5951 86.927C77.0464 86.4514 77.5912 86.0741 78.1951 85.8188C78.7991 85.5635 79.4493 85.4358 80.105 85.4435H164.811C166.173 85.4612 167.477 85.9933 168.463 86.9331C169.448 87.8729 170.041 89.1507 170.123 90.5098L177.706 237.619C177.748 238.273 177.655 238.928 177.433 239.544C177.21 240.16 176.863 240.723 176.414 241.199C175.964 241.675 175.421 242.053 174.818 242.31C174.216 242.567 173.567 242.697 172.912 242.692Z" fill="white"/>
<path d="M156.452 80.6494H147.083V81.3134H156.452V80.6494Z" fill="#0D92F4"/>
<path d="M143.836 80.6494H140.403V81.3134H143.836V80.6494Z" fill="#0D92F4"/>
<path d="M176.558 233.356H95.5496C94.2451 233.344 92.9938 232.837 92.0476 231.939C91.1014 231.041 90.5306 229.818 90.4501 228.516L83.1992 87.814C83.1589 87.1878 83.2485 86.56 83.4622 85.97C83.6759 85.38 84.0093 84.8405 84.4413 84.3854C84.8734 83.9303 85.3948 83.5694 85.9729 83.3253C86.551 83.0811 87.1733 82.9591 87.8007 82.9668H168.809C170.113 82.9812 171.364 83.4892 172.309 84.3886C173.254 85.2879 173.823 86.5119 173.902 87.814L181.153 228.516C181.193 229.141 181.103 229.768 180.89 230.357C180.677 230.946 180.344 231.485 179.912 231.94C179.481 232.394 178.96 232.754 178.383 232.998C177.806 233.242 177.184 233.364 176.558 233.356Z" fill="#0D92F4"/>
<path d="M176.558 230.122H95.5496C95.0745 230.106 94.622 229.916 94.278 229.588C93.934 229.26 93.7225 228.817 93.6837 228.343L86.4262 87.648C86.4098 87.4609 86.4333 87.2723 86.4951 87.0949C86.5569 86.9175 86.6556 86.7552 86.7848 86.6188C86.9143 86.4827 87.0713 86.3756 87.2453 86.3046C87.4192 86.2337 87.6063 86.2004 87.7941 86.2071H168.802C169.276 86.225 169.727 86.416 170.069 86.7439C170.412 87.0719 170.623 87.514 170.661 87.9866L177.952 228.682C177.968 228.868 177.944 229.056 177.883 229.233C177.821 229.409 177.723 229.571 177.594 229.707C177.466 229.843 177.31 229.95 177.137 230.022C176.964 230.094 176.778 230.128 176.591 230.122H176.558ZM87.7941 86.3731C87.629 86.3678 87.4646 86.3969 87.3114 86.4586C87.1582 86.5204 87.0196 86.6134 86.9043 86.7317C86.7935 86.8543 86.7086 86.9982 86.655 87.1545C86.6014 87.3109 86.58 87.4765 86.5922 87.6414L93.8431 228.336C93.8801 228.767 94.0733 229.17 94.3863 229.468C94.6994 229.767 95.1108 229.94 95.543 229.956H176.551C176.715 229.963 176.879 229.934 177.031 229.872C177.184 229.811 177.321 229.717 177.434 229.598C177.548 229.477 177.634 229.334 177.688 229.177C177.742 229.02 177.762 228.853 177.746 228.688L170.502 87.9933C170.467 87.5629 170.275 87.1605 169.963 86.8619C169.651 86.5634 169.24 86.3895 168.809 86.3731H87.7941Z" fill="white"/>
<path opacity="0.3" d="M148.223 137.485C157.436 128.03 156.836 112.502 146.882 102.802C136.929 93.102 121.39 92.9032 112.176 102.358C102.963 111.813 103.563 127.341 113.517 137.041C123.47 146.741 139.009 146.94 148.223 137.485Z" fill="white"/>
<path d="M150.064 119.925C150.25 123.188 149.594 126.444 148.158 129.38C146.605 132.53 144.193 135.176 141.201 137.015C138.209 138.853 134.758 139.809 131.246 139.772C127.607 139.739 124.038 138.765 120.887 136.944C117.736 135.123 115.11 132.517 113.265 129.38C111.545 126.512 110.556 123.265 110.383 119.925C110.22 117.363 110.586 114.796 111.461 112.382C112.335 109.969 113.698 107.762 115.464 105.9C117.231 104.038 119.362 102.56 121.726 101.559C124.09 100.559 126.635 100.057 129.201 100.085C134.543 100.14 139.665 102.218 143.537 105.9C147.408 109.581 149.74 114.593 150.064 119.925Z" fill="white"/>
<path d="M148.138 129.38C146.585 132.53 144.173 135.176 141.181 137.015C138.189 138.853 134.738 139.809 131.226 139.772C127.587 139.739 124.018 138.765 120.867 136.944C117.716 135.123 115.091 132.517 113.245 129.38C118.291 125.896 124.284 124.042 130.416 124.068C136.712 124.092 142.867 125.937 148.138 129.38Z" fill="#0D92F4"/>
<path d="M136.351 119.464C139.67 116.057 139.453 110.462 135.865 106.966C132.278 103.47 126.678 103.397 123.359 106.803C120.039 110.21 120.257 115.805 123.844 119.301C127.432 122.797 133.031 122.87 136.351 119.464Z" fill="#0D92F4"/>
<path d="M164.944 178.616H101.512C100.96 178.61 100.43 178.395 100.03 178.015C99.6292 177.634 99.3879 177.116 99.3544 176.564L98.8763 167.268C98.8598 167.004 98.8981 166.739 98.9887 166.49C99.0794 166.241 99.2204 166.013 99.403 165.821C99.5856 165.629 99.8059 165.477 100.05 165.374C100.294 165.271 100.557 165.22 100.822 165.223H164.254C164.805 165.229 165.334 165.443 165.734 165.822C166.135 166.201 166.377 166.718 166.412 167.268L166.89 176.564C166.907 176.829 166.87 177.095 166.779 177.345C166.689 177.594 166.548 177.823 166.366 178.016C166.183 178.208 165.962 178.361 165.718 178.464C165.473 178.568 165.21 178.619 164.944 178.616Z" fill="white"/>
<path opacity="0.3" d="M145.522 160.09H119.029C118.474 160.086 117.942 159.871 117.54 159.489C117.138 159.107 116.896 158.586 116.864 158.032L116.764 156.04C116.747 155.775 116.785 155.509 116.875 155.26C116.965 155.01 117.106 154.781 117.289 154.589C117.471 154.396 117.692 154.243 117.936 154.14C118.181 154.037 118.444 153.985 118.71 153.988H145.197C145.749 153.994 146.279 154.209 146.68 154.589C147.08 154.97 147.321 155.489 147.355 156.04L147.461 158.032C147.477 158.296 147.439 158.562 147.349 158.811C147.259 159.06 147.119 159.288 146.937 159.481C146.756 159.674 146.536 159.827 146.293 159.932C146.05 160.037 145.787 160.091 145.522 160.09Z" fill="black"/>
<path opacity="0.3" d="M155.376 223.31H115.689C114.749 223.298 113.848 222.932 113.167 222.284C112.486 221.636 112.075 220.755 112.017 219.817L111.784 215.236C111.761 214.785 111.829 214.335 111.986 213.912C112.142 213.489 112.383 213.102 112.694 212.776C113.004 212.449 113.378 212.189 113.793 212.011C114.207 211.834 114.653 211.742 115.104 211.743H154.778C155.718 211.755 156.619 212.121 157.3 212.769C157.981 213.416 158.392 214.298 158.45 215.236L158.683 219.817C158.706 220.266 158.638 220.716 158.482 221.138C158.327 221.56 158.087 221.946 157.778 222.272C157.469 222.599 157.096 222.859 156.684 223.038C156.271 223.216 155.826 223.309 155.376 223.31Z" fill="black"/>
<path d="M166.106 201.099H102.668C102.116 201.092 101.587 200.876 101.187 200.496C100.787 200.116 100.545 199.598 100.51 199.047L100.032 189.751C100.015 189.487 100.053 189.221 100.144 188.972C100.235 188.723 100.376 188.495 100.558 188.302C100.741 188.11 100.961 187.957 101.205 187.853C101.449 187.75 101.712 187.697 101.977 187.7H165.409C165.962 187.705 166.491 187.92 166.892 188.301C167.292 188.681 167.533 189.2 167.567 189.751L168.052 199.047C168.067 199.312 168.028 199.577 167.937 199.826C167.846 200.074 167.705 200.302 167.523 200.494C167.341 200.687 167.121 200.839 166.877 200.943C166.634 201.047 166.371 201.1 166.106 201.099Z" fill="white"/>
<path d="M109.56 171.916C109.578 172.21 109.536 172.504 109.435 172.78C109.335 173.056 109.178 173.309 108.976 173.522C108.773 173.735 108.529 173.904 108.258 174.019C107.987 174.133 107.696 174.19 107.402 174.187C106.791 174.18 106.206 173.942 105.764 173.52C105.321 173.099 105.055 172.526 105.018 171.916C104.999 171.623 105.041 171.329 105.14 171.053C105.24 170.777 105.396 170.524 105.598 170.311C105.8 170.098 106.044 169.928 106.314 169.814C106.585 169.699 106.876 169.642 107.17 169.645C107.781 169.653 108.367 169.891 108.81 170.312C109.254 170.733 109.522 171.306 109.56 171.916Z" fill="#263238"/>
<path d="M116.552 171.916C116.571 172.209 116.53 172.503 116.43 172.78C116.33 173.056 116.174 173.308 115.972 173.522C115.77 173.735 115.526 173.904 115.256 174.019C114.985 174.133 114.694 174.19 114.401 174.187C113.789 174.181 113.203 173.944 112.761 173.522C112.318 173.1 112.052 172.526 112.017 171.916C111.998 171.623 112.039 171.329 112.139 171.053C112.239 170.777 112.394 170.524 112.596 170.311C112.798 170.098 113.042 169.928 113.313 169.814C113.583 169.699 113.874 169.642 114.168 169.645C114.779 169.651 115.366 169.889 115.808 170.31C116.251 170.732 116.517 171.306 116.552 171.916Z" fill="#263238"/>
<path d="M123.504 171.916C123.523 172.209 123.482 172.503 123.382 172.78C123.282 173.056 123.126 173.308 122.924 173.522C122.722 173.735 122.479 173.904 122.208 174.019C121.938 174.133 121.646 174.19 121.353 174.187C120.741 174.18 120.155 173.942 119.712 173.521C119.268 173.1 119.001 172.527 118.962 171.916C118.944 171.623 118.986 171.329 119.087 171.052C119.187 170.776 119.344 170.524 119.546 170.31C119.749 170.097 119.993 169.928 120.264 169.814C120.535 169.699 120.826 169.642 121.12 169.645C121.731 169.653 122.316 169.891 122.759 170.312C123.201 170.733 123.467 171.307 123.504 171.916Z" fill="#263238"/>
<path d="M130.509 171.916C130.527 172.209 130.485 172.503 130.385 172.778C130.285 173.054 130.129 173.307 129.927 173.52C129.726 173.733 129.482 173.902 129.212 174.017C128.942 174.131 128.651 174.19 128.358 174.187C127.746 174.18 127.16 173.942 126.717 173.521C126.274 173.1 126.006 172.526 125.967 171.916C125.949 171.623 125.991 171.33 126.092 171.054C126.192 170.778 126.347 170.526 126.549 170.313C126.751 170.1 126.995 169.931 127.265 169.816C127.535 169.701 127.825 169.643 128.119 169.645C128.73 169.653 129.316 169.891 129.76 170.312C130.203 170.733 130.471 171.306 130.509 171.916Z" fill="#263238"/>
<path d="M110.735 194.386C110.755 194.679 110.713 194.973 110.613 195.249C110.514 195.526 110.358 195.778 110.156 195.991C109.954 196.205 109.71 196.374 109.439 196.488C109.169 196.603 108.878 196.66 108.584 196.657C107.973 196.65 107.386 196.412 106.943 195.991C106.5 195.569 106.232 194.996 106.194 194.386C106.175 194.093 106.218 193.799 106.318 193.522C106.419 193.246 106.575 192.993 106.778 192.78C106.98 192.567 107.224 192.398 107.495 192.284C107.766 192.169 108.058 192.112 108.352 192.115C108.962 192.122 109.548 192.361 109.99 192.782C110.432 193.203 110.698 193.776 110.735 194.386Z" fill="#263238"/>
<path d="M117.714 194.386C117.732 194.679 117.69 194.972 117.59 195.248C117.49 195.524 117.334 195.776 117.132 195.989C116.93 196.202 116.687 196.372 116.417 196.486C116.147 196.601 115.856 196.659 115.563 196.657C114.951 196.65 114.365 196.412 113.922 195.991C113.478 195.569 113.211 194.996 113.172 194.386C113.153 194.093 113.194 193.799 113.294 193.523C113.394 193.246 113.55 192.994 113.752 192.781C113.954 192.567 114.198 192.398 114.468 192.284C114.739 192.169 115.03 192.112 115.324 192.115C115.935 192.122 116.521 192.36 116.964 192.781C117.408 193.203 117.675 193.776 117.714 194.386Z" fill="#263238"/>
<path d="M124.693 194.386C124.711 194.679 124.668 194.973 124.568 195.25C124.467 195.526 124.311 195.779 124.109 195.992C123.906 196.205 123.662 196.374 123.391 196.488C123.12 196.603 122.829 196.66 122.535 196.657C121.923 196.651 121.337 196.413 120.895 195.992C120.452 195.57 120.186 194.996 120.151 194.386C120.132 194.093 120.173 193.799 120.273 193.523C120.373 193.246 120.528 192.994 120.73 192.781C120.932 192.567 121.176 192.398 121.447 192.284C121.717 192.169 122.008 192.112 122.302 192.115C122.914 192.122 123.5 192.36 123.943 192.781C124.386 193.203 124.654 193.776 124.693 194.386Z" fill="#263238"/>
<path d="M131.665 194.386C131.684 194.679 131.642 194.973 131.543 195.249C131.443 195.526 131.287 195.778 131.085 195.991C130.883 196.205 130.639 196.374 130.369 196.488C130.098 196.603 129.807 196.66 129.513 196.657C128.902 196.65 128.316 196.412 127.872 195.991C127.429 195.569 127.161 194.996 127.123 194.386C127.105 194.093 127.147 193.799 127.247 193.522C127.348 193.246 127.504 192.993 127.707 192.78C127.909 192.567 128.154 192.398 128.424 192.284C128.695 192.169 128.987 192.112 129.281 192.115C129.892 192.121 130.478 192.359 130.921 192.78C131.363 193.202 131.629 193.776 131.665 194.386Z" fill="#263238"/>
<path d="M138.643 194.386C138.662 194.679 138.621 194.973 138.521 195.249C138.421 195.526 138.266 195.778 138.064 195.991C137.862 196.205 137.618 196.374 137.347 196.488C137.077 196.603 136.786 196.66 136.492 196.657C135.88 196.65 135.294 196.412 134.851 195.991C134.408 195.569 134.14 194.996 134.101 194.386C134.083 194.093 134.125 193.8 134.226 193.524C134.326 193.248 134.481 192.996 134.683 192.783C134.885 192.57 135.129 192.4 135.399 192.286C135.669 192.171 135.959 192.113 136.253 192.115C136.864 192.122 137.45 192.36 137.894 192.781C138.337 193.203 138.605 193.776 138.643 194.386Z" fill="#263238"/>
<path d="M145.622 194.386C145.64 194.679 145.598 194.973 145.497 195.25C145.397 195.526 145.24 195.779 145.038 195.992C144.835 196.205 144.591 196.374 144.32 196.488C144.049 196.603 143.758 196.66 143.464 196.657C142.853 196.65 142.268 196.411 141.826 195.99C141.383 195.569 141.117 194.996 141.08 194.386C141.061 194.093 141.102 193.799 141.202 193.523C141.302 193.246 141.458 192.994 141.66 192.781C141.862 192.567 142.106 192.398 142.376 192.284C142.646 192.169 142.938 192.112 143.231 192.115C143.843 192.122 144.429 192.36 144.872 192.781C145.316 193.203 145.583 193.776 145.622 194.386Z" fill="#263238"/>
<path d="M221.112 117.276C221.278 117.528 221.364 117.661 221.471 117.84L221.769 118.331C221.962 118.663 222.135 118.995 222.301 119.321C222.633 119.985 222.965 120.649 223.23 121.313C223.787 122.632 224.266 123.982 224.664 125.357C225.468 128.072 225.998 130.862 226.245 133.683L226.291 134.208C226.297 134.314 226.297 134.42 226.291 134.526V134.878C226.302 135.34 226.276 135.802 226.212 136.259C226.084 137.107 225.861 137.938 225.548 138.736C224.964 140.161 224.191 141.501 223.25 142.72C221.494 144.969 219.41 146.941 217.068 148.57L215.236 146.425C216.903 144.542 218.38 142.498 219.645 140.323C220.214 139.337 220.66 138.284 220.973 137.189C221.099 136.725 221.173 136.249 221.192 135.768C221.212 135.563 221.212 135.356 221.192 135.151V135.011C221.198 134.949 221.198 134.887 221.192 134.825L221.112 134.36C220.685 131.886 220.081 129.445 219.306 127.056C218.921 125.868 218.449 124.719 217.978 123.597C217.746 123.033 217.48 122.481 217.214 121.95L216.803 121.167L216.597 120.802L216.424 120.509L221.112 117.276Z" fill="#803E3C"/>
<path d="M214.937 148.583L217.341 153.663L219.246 149.367C219.246 149.367 217.553 145.648 215.262 145.994L214.937 148.583Z" fill="#7F3E3B"/>
<path d="M219.06 153.915L220.973 150.781L219.246 149.367L217.341 153.663L219.06 153.915Z" fill="#7F3E3B"/>
<path d="M208.25 271.058C208.747 271.046 209.242 270.979 209.724 270.859C209.749 270.851 209.771 270.838 209.788 270.819C209.806 270.8 209.818 270.778 209.824 270.753C209.828 270.727 209.825 270.701 209.814 270.677C209.803 270.654 209.786 270.634 209.764 270.62C209.572 270.494 207.885 269.405 207.234 269.697C207.162 269.731 207.1 269.783 207.055 269.848C207.009 269.913 206.982 269.989 206.975 270.069C206.955 270.189 206.965 270.312 207.003 270.428C207.041 270.544 207.107 270.648 207.195 270.733C207.496 270.965 207.871 271.081 208.25 271.058ZM209.346 270.666C208.383 270.866 207.653 270.832 207.354 270.573C207.293 270.513 207.248 270.438 207.224 270.356C207.199 270.273 207.196 270.186 207.215 270.102C207.215 269.989 207.281 269.956 207.327 269.936C207.686 269.777 208.662 270.248 209.346 270.666Z" fill="#0D92F4"/>
<path d="M209.691 270.859H209.758C209.778 270.846 209.794 270.828 209.806 270.807C209.817 270.787 209.824 270.763 209.824 270.739C209.824 270.673 209.824 269.073 209.213 268.535C209.138 268.468 209.05 268.417 208.953 268.387C208.857 268.358 208.755 268.349 208.655 268.362C208.551 268.363 208.449 268.4 208.368 268.466C208.288 268.533 208.232 268.625 208.211 268.727C208.084 269.358 209.094 270.553 209.625 270.859H209.691ZM208.742 268.608C208.795 268.606 208.849 268.616 208.899 268.635C208.949 268.654 208.995 268.684 209.034 268.721C209.384 269.237 209.565 269.85 209.552 270.474C209.021 270.049 208.39 269.146 208.469 268.767C208.469 268.708 208.516 268.628 208.682 268.608H208.742Z" fill="#0D92F4"/>
<path d="M201.982 268.349C201.998 268.33 202.008 268.306 202.011 268.282C202.015 268.257 202.012 268.232 202.002 268.209C201.993 268.186 201.977 268.165 201.957 268.15C201.938 268.135 201.914 268.126 201.889 268.123C201.617 268.123 199.233 268.01 198.689 268.595V268.634C198.644 268.692 198.615 268.76 198.604 268.832C198.594 268.905 198.602 268.978 198.629 269.046C198.664 269.16 198.727 269.264 198.812 269.348C198.896 269.433 199 269.495 199.114 269.531C199.884 269.77 201.245 268.9 201.989 268.362L201.982 268.349ZM198.888 268.767C199.187 268.449 200.501 268.362 201.484 268.375C200.455 269.079 199.598 269.411 199.167 269.279C199.092 269.256 199.023 269.215 198.968 269.159C198.912 269.103 198.871 269.035 198.848 268.96C198.835 268.934 198.828 268.906 198.828 268.877C198.828 268.848 198.835 268.819 198.848 268.794L198.888 268.767Z" fill="#0D92F4"/>
<path d="M201.982 268.349C201.992 268.328 201.997 268.306 201.997 268.283C201.997 268.26 201.992 268.237 201.982 268.216C201.949 268.163 201.205 266.888 200.329 266.623C200.203 266.586 200.071 266.575 199.941 266.591C199.811 266.607 199.685 266.649 199.572 266.716C199.253 266.901 199.233 267.121 199.273 267.26C199.446 267.878 201.139 268.422 201.869 268.415C201.892 268.415 201.915 268.409 201.934 268.397C201.954 268.385 201.971 268.369 201.982 268.349ZM199.598 267.021C199.636 266.984 199.678 266.953 199.725 266.928C199.807 266.876 199.899 266.842 199.995 266.83C200.092 266.817 200.19 266.826 200.282 266.855C200.86 267.008 201.398 267.751 201.644 268.117C200.853 268.03 199.652 267.546 199.552 267.174C199.543 267.145 199.543 267.115 199.552 267.087C199.56 267.059 199.576 267.034 199.598 267.014V267.021Z" fill="#0D92F4"/>
<path d="M209.293 97.8271C208.629 101.147 207.195 108.325 209.499 110.529C209.499 110.529 208.596 113.849 202.467 113.849C195.721 113.849 199.246 110.529 199.246 110.529C202.925 109.653 202.832 106.917 202.188 104.354L209.293 97.8271Z" fill="#7F3E3B"/>
<path d="M198.058 90.045C198.095 90.0511 198.133 90.0511 198.171 90.045C198.202 90.0295 198.231 90.0079 198.254 89.9814C198.277 89.9549 198.294 89.9241 198.306 89.8907C198.317 89.8574 198.321 89.8222 198.318 89.7871C198.316 89.752 198.306 89.7178 198.29 89.6865C198.112 89.3077 197.845 88.9774 197.512 88.7232C197.179 88.469 196.79 88.2984 196.378 88.2257C196.309 88.2199 196.24 88.2407 196.186 88.2839C196.132 88.3271 196.096 88.3894 196.086 88.4581C196.078 88.5276 196.099 88.5972 196.142 88.6519C196.186 88.7066 196.249 88.7419 196.318 88.7502C196.644 88.8127 196.95 88.952 197.211 89.1564C197.472 89.3608 197.68 89.6244 197.819 89.9255C197.845 89.9648 197.88 89.9965 197.922 90.0175C197.964 90.0385 198.011 90.048 198.058 90.045Z" fill="#263238"/>
<path d="M196.046 92.96C195.523 93.9293 194.871 94.8228 194.107 95.616C194.314 95.8052 194.559 95.9472 194.827 96.032C195.094 96.1169 195.376 96.1426 195.654 96.1074L196.046 92.96Z" fill="#630F0F"/>
<path d="M196.544 92.2097C196.491 92.6546 196.205 92.9866 195.92 92.9534C195.634 92.9202 195.435 92.5284 195.488 92.0835C195.541 91.6386 195.827 91.3066 196.152 91.3398C196.478 91.373 196.591 91.7648 196.544 92.2097Z" fill="#263238"/>
<path d="M196.239 91.3797L195.216 90.968C195.216 90.968 195.648 91.8445 196.239 91.3797Z" fill="#263238"/>
<path d="M207.845 267.087L202.427 268.349L199.134 255.892L204.552 254.631L207.845 267.087Z" fill="#7F3E3B"/>
<path d="M216.159 270.726H210.601L211.032 257.851H216.597L216.159 270.726Z" fill="#7F3E3B"/>
<path d="M210.156 270.082H216.404C216.513 270.081 216.618 270.12 216.699 270.191C216.781 270.261 216.835 270.36 216.849 270.467L217.56 275.407C217.574 275.532 217.561 275.659 217.523 275.778C217.484 275.898 217.421 276.008 217.337 276.102C217.253 276.195 217.15 276.27 217.035 276.321C216.92 276.372 216.796 276.397 216.67 276.397C214.492 276.363 213.443 276.231 210.694 276.231C209.001 276.231 206.531 276.41 204.2 276.41C201.869 276.41 201.737 274.099 202.713 273.893C207.068 272.95 207.759 271.662 209.226 270.427C209.486 270.206 209.815 270.083 210.156 270.082Z" fill="#263238"/>
<path d="M201.949 267.519L207.626 264.909C207.723 264.863 207.832 264.854 207.935 264.884C208.038 264.913 208.126 264.979 208.184 265.069L210.9 269.265C210.963 269.373 211.003 269.493 211.017 269.618C211.031 269.742 211.019 269.868 210.982 269.988C210.944 270.107 210.882 270.218 210.799 270.312C210.717 270.406 210.615 270.481 210.501 270.534C208.509 271.41 207.5 271.735 205.003 272.884C203.47 273.588 200.355 275.208 198.244 276.204C196.132 277.2 195.043 275.135 195.84 274.537C199.406 271.881 200.428 269.976 201.245 268.243C201.383 267.923 201.634 267.666 201.949 267.519Z" fill="#263238"/>
<path opacity="0.2" d="M199.134 255.892L200.9 262.572L206.252 261.052L204.558 254.631L199.134 255.892Z" fill="black"/>
<path opacity="0.2" d="M216.597 257.851H211.032L210.813 264.491H216.378L216.597 257.851Z" fill="black"/>
<path d="M219.12 111.791C221.431 112.302 223.901 120.609 223.901 120.609L217.367 127.561C217.367 127.561 211.942 119.752 213.051 116.884C214.173 113.889 216.364 111.193 219.12 111.791Z" fill="#263238"/>
<path opacity="0.4" d="M215.428 117.083C214.26 116.014 213.469 116.333 212.932 117.183C212.4 119.653 215.548 124.825 216.816 126.784C217.4 124.447 218.071 119.52 215.428 117.083Z" fill="black"/>
<path d="M189.844 111.957C189.844 111.957 187.188 112.887 192.5 145.522H215.076C214.698 136.332 214.684 130.662 219.06 111.791C215.897 111.138 212.69 110.717 209.465 110.529C206.052 110.283 202.626 110.283 199.213 110.529C194.838 110.934 189.844 111.957 189.844 111.957Z" fill="#263238"/>
<path opacity="0.4" d="M189.638 124.48C189.785 126.067 189.977 127.853 190.229 129.872C192.082 128.205 193.596 123.464 193.038 120.702C191.715 121.776 190.567 123.051 189.638 124.48Z" fill="black"/>
<path d="M192.055 119.52C190.837 122.586 189.465 125.589 187.945 128.517C186.443 131.551 184.664 134.441 182.633 137.149L182.208 137.674L181.996 137.933C181.923 138.019 181.863 138.099 181.75 138.218C181.351 138.654 180.905 139.046 180.422 139.387C179.568 139.978 178.633 140.443 177.647 140.768C175.926 141.318 174.139 141.635 172.335 141.711C168.955 141.845 165.571 141.544 162.268 140.814L162.634 138.026C164.161 138.026 165.761 138.026 167.282 137.9C168.809 137.824 170.33 137.656 171.837 137.395C173.236 137.177 174.604 136.793 175.914 136.253C176.442 136.027 176.936 135.727 177.381 135.363C177.551 135.221 177.704 135.061 177.839 134.885C177.839 134.885 177.919 134.779 177.972 134.706L178.125 134.487L178.437 134.048C180.103 131.475 181.587 128.788 182.879 126.007C184.207 123.185 185.535 120.257 186.75 117.375L192.055 119.52Z" fill="#803E3C"/>
<path d="M189.844 111.957C187.075 112.621 183.676 120.217 183.676 120.217L189.413 128.65C189.413 128.65 197.055 119.029 196.146 116.094C195.216 113.033 193.224 111.134 189.844 111.957Z" fill="#263238"/>
<path d="M164.227 138.451L159.44 136.24L158.962 141C158.962 141 162.946 142.176 164.938 141L164.227 138.451Z" fill="#7F3E3B"/>
<path d="M156.578 135.761L156.12 139.387L158.962 141L159.44 136.24L156.578 135.761Z" fill="#7F3E3B"/>
<path d="M211.696 92.5351C210.681 97.9599 210.369 100.284 207.261 102.747C202.613 106.452 196.139 104.022 195.515 98.4048C194.944 93.3451 196.697 85.324 202.321 83.7968C203.56 83.455 204.865 83.4363 206.114 83.7424C207.362 84.0486 208.511 84.6693 209.451 85.5456C210.391 86.4218 211.091 87.5242 211.484 88.7478C211.877 89.9714 211.95 91.2752 211.696 92.5351Z" fill="#7F3E3B"/>
<path d="M199.778 93.6771C199.466 96.446 199.346 103.637 205.428 103.863C212.872 104.135 215.103 97.774 214.439 95.2309C218.317 92.0769 218.874 86.652 214.519 82.502C210.163 78.352 200.575 80.6694 197.919 84.7131C194.552 89.7263 199.778 93.6771 199.778 93.6771Z" fill="#263238"/>
<path d="M207.234 84.1155C206.876 81.1939 207.155 79.182 209.89 79.182C212.626 79.182 216.358 80.1714 217.726 82.9668C219.093 85.7622 219.206 90.138 215.388 89.6931C211.57 89.2482 207.666 87.6082 207.234 84.1155Z" fill="#0D92F4"/>
<path d="M211.471 83.4117C210.807 79.9323 213.921 70.1317 221.484 69.4677C224.99 69.1689 226.61 72.9404 224.804 73.5646C228.124 73.5247 230.249 77.9138 227.154 78.5711C229.598 80.1382 228.994 83.3519 225.508 84.9323C222.911 86.1275 212.367 88.2323 211.471 83.4117Z" fill="#263238"/>
<path d="M219.552 87.15C217.115 87.15 214.572 86.7914 212.991 85.7357C212.549 85.4693 212.177 85.1015 211.906 84.6627C211.635 84.2239 211.472 83.7268 211.431 83.2125C211.429 83.1688 211.444 83.126 211.472 83.0928C211.5 83.0595 211.54 83.0382 211.584 83.0332C211.606 83.0304 211.628 83.0323 211.649 83.0386C211.67 83.0449 211.69 83.0556 211.707 83.07C211.724 83.0844 211.738 83.1021 211.747 83.1221C211.757 83.142 211.762 83.1638 211.763 83.1859C211.803 83.65 211.952 84.0982 212.198 84.4939C212.443 84.8896 212.779 85.2218 213.177 85.4635C216.185 87.4555 223.137 86.7915 225.302 86.1275C227.174 85.5166 228.443 84.328 228.695 82.9602C228.774 82.4582 228.712 81.9443 228.516 81.4754C228.32 81.0066 227.998 80.6012 227.586 80.3042C227.57 80.2893 227.557 80.2713 227.549 80.2513C227.54 80.2313 227.536 80.2097 227.536 80.188C227.536 80.1662 227.54 80.1446 227.549 80.1247C227.557 80.1047 227.57 80.0867 227.586 80.0718C227.617 80.0414 227.659 80.0243 227.702 80.0243C227.746 80.0243 227.787 80.0414 227.818 80.0718C228.282 80.41 228.642 80.8704 228.859 81.4015C229.076 81.9327 229.141 82.5137 229.047 83.0797C228.775 84.5737 227.427 85.8486 225.435 86.4993C223.513 86.9838 221.533 87.2027 219.552 87.15Z" fill="#263238"/>
<path d="M198.084 92.96C197.466 93.8273 197.211 94.902 197.374 95.9546C197.593 97.349 198.948 97.442 199.93 96.5522C200.913 95.6625 201.77 94.0556 201.046 92.9002C200.885 92.6507 200.663 92.4464 200.401 92.3069C200.139 92.1674 199.845 92.0973 199.548 92.1033C199.252 92.1093 198.961 92.1912 198.705 92.3411C198.449 92.4911 198.235 92.7041 198.084 92.96Z" fill="#7F3E3B"/>
<path d="M198.463 145.522C198.463 145.522 201.69 183.696 205.043 205.209C207.746 222.586 209.884 263.203 209.884 263.203H217.467C217.467 263.203 220.163 223.801 218.795 206.617C215.322 163.125 223.071 159.579 215.096 145.529L198.463 145.522Z" fill="#0D92F4"/>
<path opacity="0.4" d="M208.011 159.951C205.006 163.105 202.581 166.764 200.847 170.761C201.73 179.34 202.779 188.862 203.894 197.201C208.472 185.351 209.89 172.515 208.011 159.951Z" fill="black"/>
<path d="M193.158 145.283C193.158 145.283 186.152 186.976 185.05 205.767C187.799 223.144 199.047 259.876 199.047 259.876L205.946 257.373C205.946 257.373 202.128 217.321 197.978 206.358C207.321 174.904 214.186 166.95 212.188 145.522C207.4 145.522 193.158 145.283 193.158 145.283Z" fill="#0D92F4"/>
<path d="M198.124 261.709L207.447 259.179L206.916 255.461L196.936 258.163L198.124 261.709Z" fill="#263238"/>
<path d="M208.841 263.356H218.502L219.007 259.969L208.788 259.624L208.841 263.356Z" fill="#263238"/>
<path d="M215.428 144.194L216.444 146.219C216.524 146.379 216.338 146.538 216.079 146.538H192.387C192.188 146.538 192.016 146.439 192.002 146.306L191.796 144.314C191.796 144.174 191.962 144.055 192.181 144.055H215.056C215.125 144.045 215.195 144.053 215.26 144.078C215.325 144.102 215.383 144.142 215.428 144.194Z" fill="#0D92F4"/>
<path opacity="0.5" d="M215.428 144.194L216.444 146.219C216.524 146.379 216.338 146.538 216.079 146.538H192.387C192.188 146.538 192.016 146.439 192.002 146.306L191.796 144.314C191.796 144.174 191.962 144.055 192.181 144.055H215.056C215.125 144.045 215.195 144.053 215.26 144.078C215.325 144.102 215.383 144.142 215.428 144.194Z" fill="black"/>
<path d="M212.354 146.744H212.965C213.091 146.744 213.184 146.678 213.177 146.605L212.885 143.949C212.885 143.869 212.772 143.809 212.653 143.809H212.035C211.916 143.809 211.823 143.869 211.829 143.949L212.115 146.605C212.128 146.691 212.234 146.744 212.354 146.744Z" fill="#0D92F4"/>
<path d="M204.134 127.408C204.06 127.407 203.989 127.383 203.931 127.339C203.872 127.294 203.829 127.233 203.808 127.163C201.644 119.155 197.168 112.555 194.997 111.559C194.828 111.455 194.626 111.422 194.432 111.466C194.392 111.487 194.348 111.5 194.303 111.503C194.258 111.506 194.213 111.501 194.17 111.486C194.127 111.471 194.087 111.448 194.054 111.417C194.02 111.387 193.994 111.35 193.975 111.308C193.956 111.267 193.946 111.222 193.946 111.177C193.945 111.132 193.954 111.087 193.971 111.045C193.988 111.003 194.014 110.965 194.047 110.934C194.079 110.902 194.118 110.877 194.16 110.861C194.342 110.795 194.536 110.769 194.728 110.785C194.921 110.801 195.108 110.859 195.276 110.954C197.573 112.043 202.115 118.551 204.386 126.738C206.013 126.738 208.523 126.519 209.133 126.465C209.89 125.562 215.455 118.604 213.376 110.988C213.364 110.946 213.361 110.902 213.366 110.859C213.371 110.815 213.385 110.774 213.407 110.736C213.429 110.698 213.458 110.665 213.492 110.639C213.527 110.612 213.567 110.593 213.609 110.583C213.693 110.56 213.783 110.572 213.859 110.616C213.935 110.659 213.991 110.731 214.014 110.815C216.331 119.288 209.612 126.93 209.538 127.003C209.513 127.036 209.48 127.062 209.444 127.082C209.407 127.101 209.367 127.113 209.326 127.116C209.293 127.116 205.979 127.408 204.134 127.408Z" fill="#0D92F4"/>
<path d="M215.136 132.096C211.517 125.317 210.036 124.839 209.392 122.661C209.88 121.443 210.577 120.319 211.451 119.341C211.013 119.215 210.07 119.029 209.459 118.916C209.525 118.617 209.598 118.325 209.665 118.039C209 117.965 208.328 117.996 207.673 118.132V117.468C206.829 117.285 205.963 117.229 205.103 117.302C205.178 117.617 205.251 117.935 205.322 118.258C204.658 118.385 203.649 118.59 203.164 118.73C204.106 119.797 204.798 121.06 205.189 122.428C203.237 125.782 195.654 147.335 207.991 148.988C220.328 150.642 218.748 138.882 215.136 132.096Z" fill="#0D92F4"/>
<path opacity="0.4" d="M215.136 132.096C211.517 125.317 210.036 124.839 209.392 122.661C209.88 121.443 210.577 120.319 211.451 119.341C211.013 119.215 210.07 119.029 209.459 118.916C209.525 118.617 209.598 118.325 209.665 118.039C209 117.965 208.328 117.996 207.673 118.132V117.468C206.829 117.285 205.963 117.229 205.103 117.302C205.178 117.617 205.251 117.935 205.322 118.258C204.658 118.385 203.649 118.59 203.164 118.73C204.106 119.797 204.798 121.06 205.189 122.428C203.237 125.782 195.654 147.335 207.991 148.988C220.328 150.642 218.748 138.882 215.136 132.096Z" fill="white"/>
<path d="M204.685 121.784C204.608 122.126 204.574 122.476 204.585 122.827C204.585 123.072 205.249 123.238 205.986 123.311C206.723 123.384 209.817 123.504 209.718 123.159C209.618 122.813 209.87 122.342 209.884 122.05C209.897 121.758 208.655 121.744 207.613 121.784C206.57 121.824 204.89 121.412 204.685 121.784Z" fill="#0D92F4"/>
<path d="M197.507 146.744H198.118C198.237 146.744 198.33 146.678 198.324 146.605L198.038 143.949C198.038 143.869 197.925 143.809 197.799 143.809H197.208C197.088 143.809 196.996 143.869 197.002 143.949L197.288 146.605C197.274 146.691 197.381 146.744 197.507 146.744Z" fill="#0D92F4"/>
</svg>
