<svg width="180" height="160" viewBox="0 0 180 160" fill="none" xmlns="http://www.w3.org/2000/svg">
  <path
    d="M76.928 108.912C77.2693 109.509 77.4827 110.149 77.568 110.832C77.6533 111.429 77.6533 112.027 77.568 112.624C77.4827 113.819 77.0133 114.885 76.16 115.824C75.5627 116.507 74.8373 117.147 73.984 117.744C73.3013 118.171 72.3627 118.384 71.168 118.384C70.2293 118.384 69.376 118.213 68.608 117.872C67.584 117.445 66.688 116.891 65.92 116.208C64.9813 115.696 64.0853 115.056 63.232 114.288L59.648 111.216C58.1973 112.581 56.576 113.733 54.784 114.672C53.0773 115.611 51.2853 116.379 49.408 116.976C46.6773 117.829 43.8613 118.299 40.96 118.384C38.144 118.555 35.328 118.299 32.512 117.616C29.696 116.933 26.9653 115.867 24.32 114.416C21.76 112.965 19.4133 111.088 17.28 108.784C14.72 106.139 12.6293 103.109 11.008 99.696C9.38667 96.1973 8.10667 92.5707 7.168 88.816C6.22933 85.0613 5.632 81.264 5.376 77.424C5.12 73.584 5.12 69.9573 5.376 66.544C5.632 63.3013 6.144 59.8027 6.912 56.048C7.68 52.208 8.832 48.5387 10.368 45.04C11.9893 41.5413 13.9947 38.4267 16.384 35.696C18.8587 32.9653 21.8453 31.088 25.344 30.064C33.792 27.4187 40.96 26.9493 46.848 28.656C52.736 30.2773 57.5573 33.2213 61.312 37.488C64.2987 40.9013 66.6453 44.912 68.352 49.52C70.144 54.128 71.3387 58.9493 71.936 63.984C72.6187 69.0187 72.7893 74.096 72.448 79.216C72.1067 84.2507 71.3387 88.944 70.144 93.296L67.84 99.44C69.12 100.635 70.3147 101.744 71.424 102.768C72.6187 103.707 73.3867 104.389 73.728 104.816C74.3253 105.413 74.88 106.053 75.392 106.736C75.9893 107.333 76.5013 108.059 76.928 108.912ZM27.264 95.6C29.824 98.928 32.896 100.933 36.48 101.616C40.1493 102.213 43.5627 101.573 46.72 99.696C45.5253 98.5013 44.416 97.4347 43.392 96.496C42.368 95.5573 41.728 94.9173 41.472 94.576C40.192 93.296 39.2107 91.76 38.528 89.968C37.8453 88.6027 37.632 87.3227 37.888 86.128C38.144 84.7627 38.6987 83.6107 39.552 82.672C39.9787 82.3307 40.3627 82.032 40.704 81.776C41.0453 81.4347 41.4293 81.136 41.856 80.88C42.2827 80.624 42.752 80.4533 43.264 80.368C43.8613 80.2827 44.4587 80.24 45.056 80.24C45.9093 80.24 46.7627 80.5387 47.616 81.136C48.384 81.5627 49.28 82.1173 50.304 82.8C50.7307 83.2267 51.1573 83.6533 51.584 84.08C52.096 84.4213 52.5653 84.8053 52.992 85.232C53.3333 85.5733 53.6747 85.9147 54.016 86.256C54.3573 86.512 54.7413 86.8107 55.168 87.152C55.7653 84.336 56.192 81.3493 56.448 78.192C56.7893 75.0347 56.832 71.8773 56.576 68.72C56.32 65.4773 55.7227 62.32 54.784 59.248C53.8453 56.0907 52.5227 53.1467 50.816 50.416C48.768 47.1733 46.1653 44.9973 43.008 43.888C39.8507 42.6933 36.0107 43.2053 31.488 45.424C29.696 46.3627 28.16 47.728 26.88 49.52C25.6853 51.2267 24.6613 53.1893 23.808 55.408C22.9547 57.5413 22.272 59.76 21.76 62.064C21.3333 64.368 21.0773 66.544 20.992 68.592C20.9067 70.8107 20.9067 73.1573 20.992 75.632C21.1627 78.0213 21.4613 80.4533 21.888 82.928C22.4 85.3173 23.0827 87.6213 23.936 89.84C24.7893 91.9733 25.8987 93.8933 27.264 95.6Z"
    fill="white" />
  <path
    d="M122.88 74.68C122.833 75.4733 122.717 76.3133 122.53 77.2C122.39 78.0867 121.947 78.81 121.2 79.37C120.64 79.8367 120.01 80.1167 119.31 80.21C118.61 80.3033 117.91 80.2567 117.21 80.07C116.557 79.93 115.927 79.6967 115.32 79.37C114.713 78.9967 114.223 78.5533 113.85 78.04C112.263 76.08 110.793 74.0733 109.44 72.02C108.133 69.92 106.803 67.82 105.45 65.72L99.57 56.83C98.7767 55.57 97.9367 54.17 97.05 52.63C96.1633 51.0433 95.2533 49.5733 94.32 48.22L94.11 74.96V75.59C94.11 76.3367 93.97 77.0833 93.69 77.83C93.4567 78.53 93.0367 79.1367 92.43 79.65C91.9633 80.0233 91.3567 80.28 90.61 80.42C89.4433 80.6533 88.4633 80.5833 87.67 80.21C86.9233 79.8367 86.3167 79.3233 85.85 78.67C85.43 78.0167 85.1267 77.27 84.94 76.43C84.8 75.5433 84.7767 74.68 84.87 73.84V72.65L85.01 67.19L85.08 57.04C85.1267 55.5467 85.15 54.03 85.15 52.49C85.15 50.9033 85.15 49.2933 85.15 47.66C85.1033 45.6533 85.1033 43.53 85.15 41.29C85.2433 39.05 85.3367 36.95 85.43 34.99C85.5233 33.9167 85.78 33.0067 86.2 32.26C86.3867 31.6067 86.8767 31.0467 87.67 30.58C88.1833 30.2533 88.8367 30.0433 89.63 29.95C90.47 29.8567 91.1933 29.88 91.8 30.02C92.0333 30.1133 92.2667 30.23 92.5 30.37C92.7333 30.4633 92.9667 30.58 93.2 30.72C93.4333 30.9067 93.6433 31.0933 93.83 31.28C94.0633 31.4667 94.2733 31.6767 94.46 31.91C94.6933 32.1433 94.9033 32.4 95.09 32.68C95.2767 32.9133 95.4633 33.1467 95.65 33.38C95.79 33.66 95.93 33.9167 96.07 34.15C96.21 34.3833 96.3733 34.6167 96.56 34.85L97.33 35.97L113.5 61.45V56.83C113.5 55.3367 113.477 53.82 113.43 52.28C113.43 50.6933 113.407 49.06 113.36 47.38C113.36 45.42 113.36 43.32 113.36 41.08C113.407 38.84 113.477 36.74 113.57 34.78C113.57 33.9867 113.803 33.0767 114.27 32.05C114.503 31.4433 114.9 30.9533 115.46 30.58C116.02 30.2067 116.65 29.95 117.35 29.81C118.05 29.67 118.75 29.67 119.45 29.81C120.15 29.95 120.757 30.23 121.27 30.65C121.41 30.79 121.55 30.9533 121.69 31.14C121.83 31.3267 121.947 31.5367 122.04 31.77C122.273 32.3767 122.413 32.9133 122.46 33.38C122.6 34.0333 122.67 34.6167 122.67 35.13C122.67 40.9633 122.67 46.9133 122.67 52.98C122.717 59.0467 122.763 64.9967 122.81 70.83C122.81 71.4833 122.833 72.1367 122.88 72.79C122.927 73.3967 122.927 74.0267 122.88 74.68ZM168.137 34.29C168.417 36.53 168.581 39.1433 168.627 42.13C168.674 45.07 168.627 48.0567 168.487 51.09C168.394 54.0767 168.184 56.9233 167.857 59.63C167.531 62.29 167.134 64.4367 166.667 66.07C166.341 67.05 165.944 68.0767 165.477 69.15C165.057 70.1767 164.591 71.11 164.077 71.95C163.331 73.21 162.421 74.33 161.347 75.31C160.274 76.2433 159.084 77.06 157.777 77.76C156.517 78.4133 155.164 78.9267 153.717 79.3C152.317 79.6733 150.917 79.8833 149.517 79.93C147.044 80.0233 144.687 79.6733 142.447 78.88C140.254 78.04 138.224 76.7333 136.357 74.96C134.957 73.6067 133.837 72.16 132.997 70.62C132.157 69.08 131.504 67.47 131.037 65.79C130.571 64.0633 130.267 62.29 130.127 60.47C130.034 58.65 129.987 56.7833 129.987 54.87C129.987 53.9833 129.964 52.8867 129.917 51.58C129.917 50.2267 129.917 48.85 129.917 47.45C129.917 46.0033 129.917 44.6033 129.917 43.25C129.917 41.8967 129.941 40.7533 129.987 39.82C129.987 39.2133 129.987 38.56 129.987 37.86C129.987 37.1133 130.011 36.39 130.057 35.69C130.151 34.9433 130.291 34.2433 130.477 33.59C130.664 32.89 130.944 32.26 131.317 31.7C131.737 31.0933 132.321 30.65 133.067 30.37C133.814 30.09 134.584 29.95 135.377 29.95C136.217 29.95 137.011 30.1133 137.757 30.44C138.504 30.7667 139.111 31.2333 139.577 31.84C139.811 32.2133 139.974 32.5867 140.067 32.96C140.161 33.3333 140.231 33.7533 140.277 34.22C140.371 35.76 140.417 37.51 140.417 39.47C140.464 41.43 140.464 43.3433 140.417 45.21C140.417 47.03 140.394 48.71 140.347 50.25C140.301 51.79 140.277 52.9333 140.277 53.68C140.277 56.48 140.417 59.0233 140.697 61.31C140.977 63.55 141.631 65.4167 142.657 66.91C143.591 68.2633 144.687 69.1267 145.947 69.5C147.207 69.8733 148.467 69.99 149.727 69.85C150.894 69.71 152.061 69.29 153.227 68.59C154.441 67.8433 155.397 66.77 156.097 65.37C156.377 64.8567 156.611 64.2733 156.797 63.62C156.984 62.9667 157.124 62.36 157.217 61.8C157.404 60.0267 157.567 57.9733 157.707 55.64C157.847 53.26 157.964 50.8333 158.057 48.36C158.151 45.8867 158.197 43.46 158.197 41.08C158.197 38.7 158.174 36.5533 158.127 34.64C158.221 33.8 158.477 33.03 158.897 32.33C159.271 31.7233 159.807 31.1867 160.507 30.72C161.207 30.2533 162.164 30.02 163.377 30.02C164.357 30.0667 165.151 30.3233 165.757 30.79C166.364 31.21 166.854 31.6767 167.227 32.19C167.647 32.7967 167.951 33.4967 168.137 34.29Z"
    fill="white" />
  <path
    d="M106.44 91.88C106.6 93.16 106.693 94.6533 106.72 96.36C106.747 98.04 106.72 99.7467 106.64 101.48C106.587 103.187 106.467 104.813 106.28 106.36C106.093 107.88 105.867 109.107 105.6 110.04C105.413 110.6 105.187 111.187 104.92 111.8C104.68 112.387 104.413 112.92 104.12 113.4C103.693 114.12 103.173 114.76 102.56 115.32C101.947 115.853 101.267 116.32 100.52 116.72C99.8 117.093 99.0267 117.387 98.2 117.6C97.4 117.813 96.6 117.933 95.8 117.96C94.3867 118.013 93.04 117.813 91.76 117.36C90.5067 116.88 89.3467 116.133 88.28 115.12C87.48 114.347 86.84 113.52 86.36 112.64C85.88 111.76 85.5067 110.84 85.24 109.88C84.9733 108.893 84.8 107.88 84.72 106.84C84.6667 105.8 84.64 104.733 84.64 103.64C84.64 103.133 84.6267 102.507 84.6 101.76C84.6 100.987 84.6 100.2 84.6 99.4C84.6 98.5733 84.6 97.7733 84.6 97C84.6 96.2267 84.6133 95.5733 84.64 95.04C84.64 94.6933 84.64 94.32 84.64 93.92C84.64 93.4933 84.6533 93.08 84.68 92.68C84.7333 92.2533 84.8133 91.8533 84.92 91.48C85.0267 91.08 85.1867 90.72 85.4 90.4C85.64 90.0533 85.9733 89.8 86.4 89.64C86.8267 89.48 87.2667 89.4 87.72 89.4C88.2 89.4 88.6533 89.4933 89.08 89.68C89.5067 89.8667 89.8533 90.1333 90.12 90.48C90.2533 90.6933 90.3467 90.9067 90.4 91.12C90.4533 91.3333 90.4933 91.5733 90.52 91.84C90.5733 92.72 90.6 93.72 90.6 94.84C90.6267 95.96 90.6267 97.0533 90.6 98.12C90.6 99.16 90.5867 100.12 90.56 101C90.5333 101.88 90.52 102.533 90.52 102.96C90.52 104.56 90.6 106.013 90.76 107.32C90.92 108.6 91.2933 109.667 91.88 110.52C92.4133 111.293 93.04 111.787 93.76 112C94.48 112.213 95.2 112.28 95.92 112.2C96.5867 112.12 97.2533 111.88 97.92 111.48C98.6133 111.053 99.16 110.44 99.56 109.64C99.72 109.347 99.8533 109.013 99.96 108.64C100.067 108.267 100.147 107.92 100.2 107.6C100.307 106.587 100.4 105.413 100.48 104.08C100.56 102.72 100.627 101.333 100.68 99.92C100.733 98.5067 100.76 97.12 100.76 95.76C100.76 94.4 100.747 93.1733 100.72 92.08C100.773 91.6 100.92 91.16 101.16 90.76C101.373 90.4133 101.68 90.1067 102.08 89.84C102.48 89.5733 103.027 89.44 103.72 89.44C104.28 89.4667 104.733 89.6133 105.08 89.88C105.427 90.12 105.707 90.3867 105.92 90.68C106.16 91.0267 106.333 91.4267 106.44 91.88ZM111.192 113.76L111.232 110.6L111.272 104.72C111.298 103.867 111.312 102.987 111.312 102.08C111.312 101.173 111.312 100.24 111.312 99.28C111.312 98.32 111.312 97.4667 111.312 96.72C111.312 95.9733 111.338 95.1333 111.392 94.2V94.04C111.418 93.7733 111.432 93.5067 111.432 93.24C111.458 92.9467 111.472 92.6533 111.472 92.36C111.498 91.88 111.645 91.36 111.912 90.8C112.098 90.4267 112.378 90.1067 112.752 89.84C113.178 89.6267 113.592 89.52 113.992 89.52C114.205 89.52 114.392 89.5333 114.552 89.56C114.738 89.56 114.912 89.5733 115.072 89.6C115.418 89.6533 115.725 89.8133 115.992 90.08C116.152 90.2133 116.298 90.4267 116.432 90.72C116.485 90.88 116.525 91.04 116.552 91.2C116.605 91.3333 116.645 91.48 116.672 91.64C116.698 91.8267 116.712 92 116.712 92.16C116.738 92.32 116.752 92.48 116.752 92.64C116.752 92.8267 116.738 93 116.712 93.16C116.712 93.2933 116.712 93.44 116.712 93.6V94.28L116.472 115.04V115.44C116.472 115.52 116.458 115.627 116.432 115.76C116.432 115.867 116.418 116 116.392 116.16C116.338 116.293 116.285 116.44 116.232 116.6C116.205 116.733 116.165 116.88 116.112 117.04C116.032 117.173 115.938 117.307 115.832 117.44C115.752 117.547 115.645 117.653 115.512 117.76C115.298 117.973 114.952 118.12 114.472 118.2C113.752 118.36 113.072 118.293 112.432 118C112.112 117.787 111.885 117.52 111.752 117.2C111.672 117.12 111.632 117.04 111.632 116.96C111.605 116.907 111.578 116.867 111.552 116.84C111.525 116.813 111.498 116.773 111.472 116.72C111.418 116.587 111.378 116.453 111.352 116.32C111.325 116.16 111.312 116 111.312 115.84C111.285 115.707 111.258 115.573 111.232 115.44C111.232 115.307 111.218 115.173 111.192 115.04C111.165 114.827 111.165 114.6 111.192 114.36V113.76ZM140.682 95.56C140.309 96.12 139.923 96.6667 139.523 97.2C139.123 97.7333 138.736 98.2667 138.363 98.8C136.683 101.2 135.003 103.587 133.323 105.96C131.669 108.333 130.016 110.733 128.363 113.16C128.763 113.16 129.069 113.16 129.283 113.16C129.496 113.16 129.669 113.16 129.803 113.16C129.963 113.16 130.136 113.16 130.323 113.16C130.509 113.16 130.789 113.173 131.163 113.2C131.536 113.2 132.043 113.2 132.683 113.2C133.349 113.2 134.229 113.2 135.323 113.2C136.016 113.2 136.696 113.2 137.363 113.2C138.056 113.2 138.749 113.227 139.443 113.28C139.576 113.307 139.723 113.333 139.883 113.36C140.043 113.36 140.189 113.387 140.323 113.44L140.563 113.56C140.563 113.56 140.643 113.587 140.803 113.64C141.123 113.827 141.389 114.04 141.602 114.28C141.976 114.813 142.083 115.413 141.923 116.08C141.896 116.267 141.829 116.44 141.723 116.6C141.643 116.733 141.549 116.853 141.443 116.96C141.229 117.173 140.976 117.32 140.682 117.4C140.389 117.56 140.083 117.653 139.762 117.68C139.629 117.707 139.496 117.733 139.363 117.76C139.256 117.76 139.136 117.76 139.003 117.76H124.483C124.323 117.76 124.163 117.76 124.003 117.76C123.843 117.76 123.683 117.747 123.523 117.72C123.443 117.693 123.363 117.68 123.283 117.68C123.229 117.68 123.176 117.667 123.123 117.64C123.016 117.613 122.909 117.6 122.803 117.6C122.723 117.573 122.616 117.547 122.483 117.52C122.189 117.36 121.963 117.213 121.803 117.08C121.483 116.84 121.309 116.587 121.283 116.32V116.28C121.229 116.147 121.189 116.027 121.163 115.92C121.163 115.813 121.176 115.68 121.203 115.52C121.203 115.493 121.189 115.48 121.163 115.48C121.163 115.453 121.163 115.413 121.163 115.36C121.163 115.2 121.189 115.053 121.243 114.92C121.296 114.76 121.349 114.6 121.403 114.44C121.456 114.36 121.496 114.28 121.523 114.2C121.576 114.093 121.643 114 121.723 113.92C121.776 113.787 121.843 113.653 121.923 113.52C122.029 113.387 122.109 113.253 122.163 113.12C122.216 113.013 122.269 112.907 122.323 112.8C122.403 112.667 122.469 112.56 122.523 112.48C122.629 112.373 122.709 112.28 122.763 112.2C122.843 112.093 122.909 111.987 122.963 111.88L125.043 108.96L128.763 103.56C129.349 102.787 129.923 101.987 130.483 101.16C131.069 100.307 131.669 99.4267 132.283 98.52C132.736 97.8267 133.149 97.2267 133.523 96.72C133.896 96.1867 134.296 95.6133 134.723 95C133.789 95 132.909 95 132.083 95C131.283 95 130.483 95 129.683 95C128.883 94.9733 128.043 94.96 127.163 94.96C126.309 94.9333 125.363 94.9067 124.323 94.88C123.949 94.8533 123.509 94.8 123.003 94.72C122.523 94.6133 122.123 94.4133 121.803 94.12C121.509 93.8533 121.336 93.5733 121.283 93.28C121.203 93.0133 121.163 92.6933 121.163 92.32C121.163 91.8933 121.283 91.52 121.523 91.2C121.789 90.8533 122.123 90.6 122.523 90.44C123.083 90.2267 123.629 90.12 124.163 90.12C124.456 90.0933 124.749 90.08 125.043 90.08C125.336 90.08 125.616 90.0533 125.883 90H126.083C126.856 89.9733 128.003 89.9733 129.523 90C131.069 90 133.003 90 135.323 90C135.616 90 135.923 90 136.243 90C136.563 89.9733 136.869 89.9733 137.163 90C137.776 90.0533 138.416 90.0667 139.083 90.04C139.776 90.0133 140.403 90.16 140.963 90.48C141.123 90.56 141.269 90.6533 141.403 90.76C141.536 90.8667 141.683 90.96 141.843 91.04C142.163 91.3333 142.309 91.68 142.283 92.08C142.283 92.48 142.189 92.8933 142.003 93.32C141.843 93.7467 141.629 94.16 141.363 94.56C141.096 94.96 140.869 95.2933 140.682 95.56Z"
    fill="white" />
  <path
    d="M158.539 89.6C159.496 89.6 160.382 89.9096 161.1 90.4352V96.8H160.043C159.831 96.1995 159.413 95.6934 158.864 95.3711C158.315 95.0489 157.669 94.9312 157.041 95.0389C156.413 95.1466 155.844 95.4728 155.434 95.9597C155.023 96.4467 154.798 97.0631 154.798 97.7C154.798 98.3369 155.023 98.9533 155.434 99.4403C155.844 99.9273 156.413 100.253 157.041 100.361C157.669 100.469 158.315 100.351 158.864 100.029C159.413 99.7066 159.831 99.2005 160.043 98.6H161.1V117.018C160.146 117.876 158.886 118.4 157.5 118.4C156.197 118.399 154.937 117.927 153.955 117.071C152.972 116.214 152.333 115.031 152.154 113.74C151.145 113.512 150.215 113.02 149.458 112.314C148.701 111.609 148.146 110.715 147.848 109.724C147.55 108.734 147.521 107.682 147.763 106.676C148.005 105.67 148.509 104.747 149.225 104H153.9C154.139 104 154.368 104.095 154.536 104.264C154.705 104.432 154.8 104.661 154.8 104.9V105.957C154.2 106.169 153.693 106.587 153.371 107.136C153.049 107.685 152.931 108.331 153.039 108.959C153.147 109.587 153.473 110.156 153.96 110.567C154.447 110.977 155.063 111.202 155.7 111.202C156.337 111.202 156.953 110.977 157.44 110.567C157.927 110.156 158.253 109.587 158.361 108.959C158.469 108.331 158.351 107.685 158.029 107.136C157.707 106.587 157.2 106.169 156.6 105.957V104.9C156.6 104.184 156.316 103.497 155.809 102.991C155.303 102.484 154.616 102.2 153.9 102.2H150.313C149.722 101.424 149.401 100.476 149.4 99.5V99.1436C149.4 96.8288 151.034 94.8344 153.304 94.3808L154.035 94.2332L154.26 93.1064C154.458 92.1175 154.993 91.2278 155.773 90.5885C156.553 89.9492 157.53 89.5999 158.539 89.6ZM165.461 89.6C167.54 89.6 169.331 91.0688 169.74 93.1064L169.965 94.2332L170.696 94.3808C171.797 94.6016 172.787 95.1967 173.499 96.0649C174.21 96.9331 174.599 98.021 174.6 99.1436V99.5C174.599 100.122 174.469 100.736 174.218 101.305C173.967 101.874 173.602 102.384 173.144 102.805C174.226 103.339 175.117 104.196 175.693 105.257C176.269 106.318 176.502 107.531 176.359 108.73C176.217 109.929 175.707 111.055 174.899 111.952C174.091 112.849 173.025 113.473 171.848 113.74C171.669 115.031 171.029 116.215 170.046 117.071C169.063 117.928 167.804 118.4 166.5 118.4C165.114 118.4 163.854 117.876 162.9 117.018V109.4H166.5C167.216 109.4 167.903 109.116 168.409 108.609C168.916 108.103 169.2 107.416 169.2 106.7V105.642C169.802 105.431 170.31 105.014 170.633 104.465C170.957 103.915 171.075 103.269 170.967 102.64C170.859 102.012 170.532 101.442 170.044 101.032C169.556 100.621 168.938 100.398 168.3 100.4C167.665 100.403 167.051 100.629 166.567 101.039C166.082 101.449 165.758 102.017 165.65 102.643C165.543 103.269 165.659 103.913 165.979 104.461C166.299 105.009 166.802 105.427 167.4 105.642V106.7C167.4 106.939 167.305 107.168 167.136 107.336C166.968 107.505 166.739 107.6 166.5 107.6H162.9V90.4352C163.62 89.9096 164.502 89.6 165.461 89.6ZM155.7 107.6C155.939 107.6 156.168 107.695 156.336 107.864C156.505 108.032 156.6 108.261 156.6 108.5C156.6 108.739 156.505 108.968 156.336 109.136C156.168 109.305 155.939 109.4 155.7 109.4C155.461 109.4 155.232 109.305 155.064 109.136C154.895 108.968 154.8 108.739 154.8 108.5C154.8 108.261 154.895 108.032 155.064 107.864C155.232 107.695 155.461 107.6 155.7 107.6ZM168.3 102.2C168.539 102.2 168.768 102.295 168.936 102.464C169.105 102.632 169.2 102.861 169.2 103.1C169.2 103.339 169.105 103.568 168.936 103.736C168.768 103.905 168.539 104 168.3 104C168.061 104 167.832 103.905 167.664 103.736C167.495 103.568 167.4 103.339 167.4 103.1C167.4 102.861 167.495 102.632 167.664 102.464C167.832 102.295 168.061 102.2 168.3 102.2ZM157.5 96.8C157.739 96.8 157.968 96.8948 158.136 97.0636C158.305 97.2324 158.4 97.4613 158.4 97.7C158.4 97.9387 158.305 98.1676 158.136 98.3364C157.968 98.5052 157.739 98.6 157.5 98.6C157.261 98.6 157.032 98.5052 156.864 98.3364C156.695 98.1676 156.6 97.9387 156.6 97.7C156.6 97.4613 156.695 97.2324 156.864 97.0636C157.032 96.8948 157.261 96.8 157.5 96.8Z"
    fill="white" />
</svg>
